<svg width="367" height="553" viewBox="0 0 367 553" fill="none" xmlns="http://www.w3.org/2000/svg">
<path d="M94.9822 524.182H96.9743V539.917C96.9672 541.337 96.7116 542.523 96.2073 543.475C95.703 544.42 95.007 545.126 94.1192 545.595C93.2314 546.064 92.2123 546.298 91.0617 546.298C89.9324 546.298 88.9239 546.089 88.0361 545.67C87.1483 545.251 86.4488 544.661 85.9374 543.901C85.4331 543.141 85.181 542.25 85.181 541.227H87.1412C87.1412 541.874 87.3117 542.445 87.6526 542.942C87.9935 543.433 88.4587 543.816 89.0482 544.093C89.6448 544.37 90.316 544.509 91.0617 544.509C91.8358 544.509 92.5141 544.345 93.0965 544.018C93.686 543.692 94.1476 543.191 94.4814 542.516C94.8153 541.835 94.9822 540.968 94.9822 539.917V524.182ZM112.773 539.746V529.636H114.67V546H112.773V543.283H112.624C112.241 544.121 111.633 544.821 110.802 545.382C109.972 545.936 108.956 546.213 107.756 546.213C106.712 546.213 105.785 545.986 104.975 545.531C104.165 545.07 103.53 544.395 103.068 543.507C102.606 542.619 102.376 541.529 102.376 540.237V529.636H104.272V540.119C104.272 541.398 104.648 542.428 105.401 543.209C106.154 543.983 107.12 544.37 108.299 544.37C109.038 544.37 109.748 544.192 110.43 543.837C111.111 543.482 111.672 542.964 112.113 542.282C112.553 541.593 112.773 540.748 112.773 539.746ZM119.69 546V529.636H121.533V532.151H121.704C122.03 531.305 122.574 530.641 123.334 530.158C124.101 529.668 125.02 529.423 126.093 529.423C127.222 529.423 128.149 529.69 128.873 530.222C129.605 530.748 130.152 531.472 130.514 532.396H130.652C131.022 531.487 131.622 530.766 132.453 530.233C133.291 529.693 134.307 529.423 135.5 529.423C137.02 529.423 138.22 529.903 139.101 530.862C139.981 531.813 140.422 533.205 140.422 535.038V546H138.525V535.038C138.525 533.745 138.195 532.776 137.535 532.129C136.874 531.483 136.004 531.16 134.924 531.16C133.674 531.16 132.712 531.543 132.037 532.31C131.363 533.077 131.025 534.05 131.025 535.229V546H129.086V534.867C129.086 533.759 128.777 532.864 128.16 532.183C127.542 531.501 126.672 531.16 125.549 531.16C124.797 531.16 124.118 531.344 123.515 531.714C122.918 532.083 122.446 532.598 122.098 533.259C121.757 533.912 121.586 534.665 121.586 535.517V546H119.69ZM145.442 552.136V529.636H147.285V532.758H147.509C147.736 532.268 148.049 531.767 148.446 531.256C148.844 530.737 149.37 530.3 150.023 529.945C150.684 529.59 151.514 529.413 152.516 529.413C153.865 529.413 155.044 529.768 156.053 530.478C157.068 531.181 157.857 532.168 158.418 533.44C158.986 534.704 159.27 536.178 159.27 537.861C159.27 539.551 158.986 541.032 158.418 542.303C157.857 543.575 157.068 544.565 156.053 545.276C155.044 545.986 153.872 546.341 152.537 546.341C151.55 546.341 150.723 546.163 150.055 545.808C149.394 545.453 148.858 545.016 148.446 544.498C148.041 543.972 147.729 543.461 147.509 542.964H147.338V552.136H145.442ZM147.317 537.829C147.317 539.15 147.512 540.322 147.903 541.344C148.301 542.36 148.869 543.159 149.608 543.741C150.353 544.317 151.255 544.604 152.313 544.604C153.4 544.604 154.316 544.306 155.062 543.71C155.815 543.106 156.387 542.293 156.777 541.27C157.175 540.247 157.374 539.1 157.374 537.829C157.374 536.572 157.179 535.439 156.788 534.43C156.404 533.422 155.836 532.623 155.083 532.033C154.331 531.437 153.407 531.138 152.313 531.138C151.248 531.138 150.343 531.426 149.597 532.001C148.851 532.57 148.283 533.358 147.892 534.366C147.509 535.368 147.317 536.522 147.317 537.829ZM163.452 546V529.636H165.359V546H163.452ZM164.421 526.824C164.03 526.824 163.697 526.692 163.42 526.43C163.143 526.16 163.004 525.837 163.004 525.46C163.004 525.084 163.143 524.764 163.42 524.501C163.697 524.232 164.03 524.097 164.421 524.097C164.812 524.097 165.146 524.232 165.422 524.501C165.699 524.764 165.838 525.084 165.838 525.46C165.838 525.837 165.699 526.16 165.422 526.43C165.146 526.692 164.812 526.824 164.421 526.824ZM172.27 535.773V546H170.374V529.636H172.217V532.204H172.387C172.771 531.366 173.367 530.695 174.177 530.19C174.994 529.679 176.002 529.423 177.203 529.423C178.303 529.423 179.269 529.654 180.1 530.116C180.938 530.57 181.588 531.241 182.05 532.129C182.519 533.017 182.753 534.107 182.753 535.4V546H180.857V535.517C180.857 534.175 180.48 533.113 179.727 532.332C178.982 531.55 177.98 531.16 176.723 531.16C175.864 531.16 175.1 531.344 174.433 531.714C173.765 532.083 173.236 532.616 172.845 533.312C172.462 534.001 172.27 534.821 172.27 535.773ZM193.99 552.477C192.875 552.477 191.898 552.332 191.06 552.04C190.222 551.756 189.515 551.366 188.94 550.869C188.365 550.371 187.917 549.814 187.598 549.196L189.153 548.173C189.387 548.585 189.7 548.99 190.09 549.388C190.488 549.786 191.003 550.116 191.635 550.379C192.274 550.641 193.059 550.773 193.99 550.773C195.438 550.773 196.607 550.411 197.495 549.686C198.389 548.962 198.837 547.836 198.837 546.309V542.623H198.666C198.446 543.12 198.13 543.617 197.718 544.114C197.306 544.604 196.767 545.013 196.099 545.339C195.438 545.666 194.618 545.83 193.638 545.83C192.331 545.83 191.17 545.506 190.154 544.86C189.146 544.214 188.35 543.29 187.768 542.09C187.193 540.883 186.905 539.445 186.905 537.776C186.905 536.121 187.186 534.665 187.747 533.408C188.315 532.151 189.107 531.17 190.122 530.467C191.138 529.764 192.321 529.413 193.67 529.413C194.671 529.413 195.502 529.59 196.163 529.945C196.823 530.293 197.353 530.727 197.75 531.245C198.155 531.763 198.471 532.268 198.698 532.758H198.89V529.636H200.744V546.426C200.744 547.811 200.449 548.951 199.86 549.846C199.27 550.741 198.468 551.401 197.452 551.827C196.436 552.261 195.282 552.477 193.99 552.477ZM193.862 544.093C194.913 544.093 195.811 543.841 196.557 543.337C197.303 542.825 197.875 542.094 198.272 541.142C198.67 540.19 198.869 539.058 198.869 537.744C198.869 536.465 198.674 535.332 198.283 534.345C197.892 533.351 197.324 532.57 196.578 532.001C195.84 531.426 194.934 531.138 193.862 531.138C192.768 531.138 191.845 531.433 191.092 532.023C190.339 532.612 189.771 533.408 189.387 534.409C189.004 535.403 188.812 536.515 188.812 537.744C188.812 538.994 189.007 540.098 189.398 541.057C189.789 542.009 190.36 542.754 191.113 543.294C191.866 543.827 192.782 544.093 193.862 544.093ZM214.223 529.636H216.13V547.587C216.13 548.518 215.956 549.32 215.608 549.995C215.267 550.677 214.77 551.202 214.117 551.572C213.463 551.948 212.675 552.136 211.752 552.136C211.68 552.136 211.609 552.136 211.538 552.136C211.467 552.136 211.389 552.133 211.304 552.126L211.325 550.347C211.396 550.347 211.464 550.347 211.528 550.347C211.592 550.347 211.659 550.347 211.73 550.347C212.511 550.347 213.122 550.105 213.563 549.622C214.003 549.139 214.223 548.461 214.223 547.587V529.636ZM215.161 526.824C214.777 526.824 214.443 526.692 214.159 526.43C213.882 526.16 213.744 525.837 213.744 525.46C213.744 525.084 213.882 524.764 214.159 524.501C214.443 524.232 214.777 524.097 215.161 524.097C215.551 524.097 215.885 524.232 216.162 524.501C216.446 524.764 216.588 525.084 216.588 525.46C216.588 525.837 216.446 526.16 216.162 526.43C215.885 526.692 215.551 526.824 215.161 526.824ZM225.715 546.373C224.728 546.373 223.826 546.181 223.009 545.798C222.193 545.407 221.543 544.846 221.06 544.114C220.577 543.376 220.335 542.481 220.335 541.43C220.335 540.62 220.488 539.938 220.794 539.384C221.099 538.83 221.532 538.376 222.093 538.021C222.654 537.665 223.318 537.385 224.085 537.179C224.853 536.973 225.698 536.813 226.621 536.7C227.537 536.586 228.311 536.487 228.943 536.401C229.583 536.316 230.069 536.181 230.403 535.996C230.737 535.812 230.904 535.513 230.904 535.102V534.718C230.904 533.603 230.57 532.726 229.902 532.087C229.242 531.44 228.29 531.117 227.047 531.117C225.868 531.117 224.906 531.376 224.16 531.895C223.421 532.413 222.903 533.024 222.605 533.727L220.804 533.077C221.174 532.183 221.685 531.469 222.338 530.936C222.992 530.396 223.723 530.009 224.533 529.775C225.343 529.533 226.163 529.413 226.994 529.413C227.619 529.413 228.269 529.494 228.943 529.658C229.625 529.821 230.257 530.105 230.84 530.51C231.422 530.908 231.894 531.465 232.257 532.183C232.619 532.893 232.8 533.795 232.8 534.888V546H230.904V543.411H230.786C230.559 543.894 230.222 544.363 229.774 544.817C229.327 545.272 228.766 545.645 228.091 545.936C227.416 546.227 226.625 546.373 225.715 546.373ZM225.971 544.636C226.98 544.636 227.853 544.413 228.592 543.965C229.331 543.518 229.899 542.925 230.296 542.186C230.701 541.44 230.904 540.62 230.904 539.725V537.36C230.762 537.495 230.524 537.616 230.19 537.722C229.863 537.829 229.483 537.925 229.05 538.01C228.624 538.088 228.198 538.156 227.772 538.212C227.345 538.269 226.962 538.319 226.621 538.362C225.698 538.475 224.909 538.653 224.256 538.894C223.603 539.136 223.102 539.469 222.754 539.896C222.406 540.315 222.232 540.854 222.232 541.515C222.232 542.509 222.587 543.28 223.297 543.827C224.007 544.366 224.899 544.636 225.971 544.636ZM244.236 546.341C242.773 546.341 241.498 545.975 240.412 545.244C239.332 544.512 238.494 543.511 237.898 542.239C237.301 540.968 237.003 539.519 237.003 537.893C237.003 536.252 237.305 534.793 237.908 533.514C238.519 532.236 239.364 531.234 240.444 530.51C241.523 529.778 242.777 529.413 244.204 529.413C245.298 529.413 246.289 529.626 247.177 530.052C248.065 530.471 248.796 531.064 249.371 531.831C249.954 532.591 250.32 533.479 250.469 534.494H248.551C248.352 533.571 247.873 532.783 247.113 532.129C246.36 531.469 245.401 531.138 244.236 531.138C243.192 531.138 242.269 531.423 241.467 531.991C240.664 532.552 240.035 533.337 239.581 534.345C239.133 535.347 238.91 536.508 238.91 537.829C238.91 539.157 239.13 540.332 239.57 541.355C240.011 542.371 240.628 543.166 241.424 543.741C242.226 544.317 243.164 544.604 244.236 544.604C244.961 544.604 245.621 544.469 246.218 544.2C246.822 543.923 247.326 543.532 247.731 543.028C248.143 542.523 248.42 541.923 248.562 541.227H250.479C250.337 542.214 249.986 543.095 249.425 543.869C248.871 544.636 248.15 545.24 247.262 545.68C246.381 546.121 245.373 546.341 244.236 546.341ZM256.269 539.821L256.248 537.339H256.674L264.345 529.636H266.742L259.167 537.222L258.997 537.254L256.269 539.821ZM254.544 546V524.182H256.44V546H254.544ZM264.739 546L258.091 537.594L259.455 536.284L267.168 546H264.739ZM281.3 533.227L279.563 533.717C279.393 533.227 279.151 532.783 278.839 532.385C278.526 531.987 278.118 531.671 277.614 531.437C277.116 531.202 276.498 531.085 275.76 531.085C274.652 531.085 273.743 531.348 273.033 531.874C272.322 532.399 271.967 533.077 271.967 533.908C271.967 534.612 272.209 535.183 272.692 535.624C273.182 536.057 273.935 536.401 274.95 536.657L277.422 537.264C278.793 537.598 279.819 538.127 280.501 538.852C281.19 539.576 281.534 540.485 281.534 541.579C281.534 542.502 281.278 543.322 280.767 544.04C280.256 544.757 279.542 545.322 278.626 545.734C277.717 546.138 276.662 546.341 275.462 546.341C273.864 546.341 272.546 545.982 271.509 545.265C270.472 544.54 269.808 543.496 269.517 542.133L271.339 541.685C271.573 542.658 272.031 543.393 272.713 543.891C273.402 544.388 274.307 544.636 275.43 544.636C276.687 544.636 277.692 544.356 278.445 543.795C279.197 543.227 279.574 542.516 279.574 541.664C279.574 541.004 279.354 540.45 278.913 540.002C278.473 539.548 277.805 539.214 276.91 539.001L274.236 538.362C272.816 538.021 271.765 537.481 271.083 536.742C270.401 536.004 270.06 535.087 270.06 533.994C270.06 533.092 270.305 532.3 270.795 531.618C271.285 530.929 271.96 530.389 272.82 529.999C273.679 529.608 274.659 529.413 275.76 529.413C277.258 529.413 278.455 529.754 279.35 530.435C280.252 531.11 280.902 532.04 281.3 533.227Z" fill="white"/>
<circle cx="118" cy="491" r="2" fill="#D1FAE5"/>
<circle cx="130" cy="491" r="2" fill="#D1FAE5"/>
<circle cx="142" cy="491" r="2" fill="#D1FAE5"/>
<circle cx="154" cy="491" r="2" fill="#10B981"/>
<circle cx="166" cy="491" r="2" fill="#10B981"/>
<circle cx="178" cy="491" r="2" fill="#10B981"/>
<circle cx="190" cy="491" r="2" fill="#10B981"/>
<circle cx="202" cy="491" r="2" fill="#10B981"/>
<circle cx="214" cy="491" r="2" fill="#10B981"/>
<circle cx="226" cy="491" r="2" fill="#10B981"/>
<circle cx="238" cy="491" r="2" fill="#10B981"/>
<circle cx="250" cy="491" r="2" fill="#10B981"/>
<g filter="url(#filter0_dd_1605_1366)">
<path d="M364 268.5C364 368.187 283.187 449 183.5 449C83.8126 449 3 368.187 3 268.5C3 168.813 83.8126 88 183.5 88C283.187 88 364 168.813 364 268.5ZM30.075 268.5C30.075 353.234 98.7657 421.925 183.5 421.925C268.234 421.925 336.925 353.234 336.925 268.5C336.925 183.766 268.234 115.075 183.5 115.075C98.7657 115.075 30.075 183.766 30.075 268.5Z" fill="#111827"/>
</g>
<g opacity="0.3" filter="url(#filter1_dd_1605_1366)">
<path d="M364 268.5C364 368.187 283.187 449 183.5 449C83.8126 449 3 368.187 3 268.5C3 168.813 83.8126 88 183.5 88C283.187 88 364 168.813 364 268.5ZM30.075 268.5C30.075 353.234 98.7657 421.925 183.5 421.925C268.234 421.925 336.925 353.234 336.925 268.5C336.925 183.766 268.234 115.075 183.5 115.075C98.7657 115.075 30.075 183.766 30.075 268.5Z" fill="#1F2937"/>
</g>
<path d="M183.5 92.5125C183.5 90.0203 185.521 87.9941 188.012 88.0563C233.675 89.197 277.276 107.618 309.95 139.696C342.625 171.773 361.847 215.027 363.83 260.661C363.938 263.151 361.949 265.208 359.458 265.254V265.254C356.966 265.3 354.915 263.317 354.803 260.827C352.866 217.558 334.615 176.557 303.628 146.136C272.641 115.715 231.31 98.223 188.012 97.0843C185.521 97.0188 183.5 95.0047 183.5 92.5125V92.5125Z" fill="#FBBF24"/>
<path d="M183.5 105.575C183.5 100.839 187.342 96.9776 192.072 97.2141C234.435 99.3325 274.632 117.095 304.769 147.231C336.931 179.394 355 223.015 355 268.5C355 313.985 336.931 357.606 304.769 389.769C274.633 419.905 234.435 437.667 192.072 439.786C187.342 440.022 183.5 436.161 183.5 431.425V431.425C183.5 426.689 187.343 422.875 192.072 422.612C229.884 420.51 265.723 404.561 292.642 377.642C321.588 348.696 337.85 309.436 337.85 268.5C337.85 227.564 321.588 188.304 292.642 159.358C265.723 132.439 229.884 116.49 192.072 114.388C187.343 114.125 183.5 110.311 183.5 105.575V105.575Z" fill="#059669"/>
<path d="M147.84 264.18C147.741 263.249 147.322 262.525 146.583 262.006C145.852 261.488 144.9 261.229 143.728 261.229C142.904 261.229 142.198 261.353 141.608 261.602C141.019 261.85 140.568 262.187 140.255 262.614C139.943 263.04 139.783 263.526 139.776 264.073C139.776 264.528 139.879 264.922 140.085 265.256C140.298 265.589 140.585 265.874 140.948 266.108C141.31 266.335 141.711 266.527 142.151 266.683C142.592 266.839 143.036 266.971 143.483 267.077L145.528 267.589C146.352 267.781 147.144 268.04 147.904 268.366C148.671 268.693 149.357 269.105 149.96 269.602C150.571 270.099 151.054 270.7 151.409 271.403C151.764 272.106 151.942 272.93 151.942 273.874C151.942 275.153 151.615 276.278 150.962 277.251C150.308 278.217 149.364 278.974 148.128 279.521C146.899 280.06 145.411 280.33 143.664 280.33C141.967 280.33 140.493 280.067 139.243 279.542C138 279.016 137.027 278.249 136.324 277.241C135.628 276.232 135.252 275.004 135.195 273.555H139.083C139.14 274.315 139.374 274.947 139.786 275.451C140.198 275.955 140.734 276.332 141.395 276.58C142.063 276.829 142.808 276.953 143.632 276.953C144.492 276.953 145.244 276.825 145.891 276.57C146.544 276.307 147.055 275.945 147.425 275.483C147.794 275.014 147.982 274.467 147.989 273.842C147.982 273.274 147.815 272.805 147.489 272.436C147.162 272.06 146.704 271.747 146.114 271.499C145.532 271.243 144.85 271.016 144.069 270.817L141.587 270.178C139.79 269.716 138.369 269.016 137.325 268.079C136.288 267.134 135.77 265.881 135.77 264.318C135.77 263.033 136.118 261.907 136.814 260.941C137.517 259.975 138.472 259.226 139.68 258.693C140.887 258.153 142.254 257.884 143.781 257.884C145.33 257.884 146.686 258.153 147.851 258.693C149.023 259.226 149.943 259.968 150.61 260.92C151.278 261.864 151.622 262.951 151.644 264.18H147.84ZM166.215 286.136V277.422H166.055C165.856 277.82 165.568 278.242 165.192 278.69C164.816 279.13 164.318 279.506 163.701 279.819C163.083 280.131 162.305 280.288 161.367 280.288C160.082 280.288 158.931 279.957 157.916 279.297C156.9 278.636 156.098 277.678 155.508 276.42C154.919 275.163 154.624 273.636 154.624 271.839C154.624 270.021 154.922 268.487 155.519 267.237C156.122 265.98 156.936 265.032 157.958 264.393C158.981 263.746 160.121 263.423 161.378 263.423C162.337 263.423 163.125 263.587 163.743 263.913C164.361 264.233 164.851 264.62 165.213 265.075C165.576 265.522 165.856 265.945 166.055 266.342H166.289V263.636H170.082V286.136H166.215ZM162.443 277.124C163.26 277.124 163.956 276.903 164.532 276.463C165.107 276.016 165.544 275.394 165.842 274.599C166.14 273.803 166.289 272.876 166.289 271.818C166.289 270.76 166.14 269.84 165.842 269.059C165.551 268.278 165.117 267.67 164.542 267.237C163.974 266.804 163.274 266.587 162.443 266.587C161.584 266.587 160.867 266.811 160.291 267.259C159.716 267.706 159.283 268.324 158.992 269.112C158.701 269.901 158.555 270.803 158.555 271.818C158.555 272.841 158.701 273.754 158.992 274.556C159.29 275.352 159.727 275.98 160.302 276.442C160.884 276.896 161.598 277.124 162.443 277.124ZM184.475 273.118V263.636H188.331V280H184.592V277.092H184.421C184.052 278.008 183.445 278.757 182.6 279.339C181.762 279.922 180.728 280.213 179.5 280.213C178.427 280.213 177.479 279.975 176.655 279.499C175.838 279.016 175.199 278.317 174.737 277.401C174.276 276.477 174.045 275.362 174.045 274.055V263.636H177.902V273.459C177.902 274.496 178.186 275.32 178.754 275.93C179.322 276.541 180.068 276.847 180.991 276.847C181.559 276.847 182.11 276.708 182.642 276.431C183.175 276.154 183.612 275.742 183.953 275.195C184.301 274.641 184.475 273.949 184.475 273.118ZM197.006 280.33C195.969 280.33 195.035 280.146 194.204 279.776C193.38 279.4 192.727 278.846 192.244 278.114C191.768 277.383 191.53 276.481 191.53 275.408C191.53 274.485 191.7 273.722 192.041 273.118C192.382 272.514 192.847 272.031 193.437 271.669C194.026 271.307 194.69 271.033 195.429 270.849C196.175 270.657 196.945 270.518 197.741 270.433C198.7 270.334 199.477 270.245 200.074 270.167C200.671 270.082 201.104 269.954 201.374 269.783C201.651 269.606 201.789 269.332 201.789 268.963V268.899C201.789 268.097 201.551 267.475 201.075 267.035C200.6 266.594 199.914 266.374 199.019 266.374C198.075 266.374 197.325 266.58 196.771 266.992C196.225 267.404 195.855 267.891 195.663 268.452L192.063 267.94C192.347 266.946 192.815 266.115 193.469 265.447C194.122 264.773 194.921 264.268 195.866 263.935C196.81 263.594 197.854 263.423 198.998 263.423C199.786 263.423 200.571 263.516 201.352 263.7C202.134 263.885 202.847 264.19 203.494 264.616C204.14 265.036 204.658 265.607 205.049 266.332C205.447 267.056 205.646 267.962 205.646 269.048V280H201.938V277.752H201.81C201.576 278.207 201.246 278.633 200.82 279.031C200.401 279.421 199.872 279.737 199.232 279.979C198.6 280.213 197.858 280.33 197.006 280.33ZM198.007 277.496C198.781 277.496 199.453 277.344 200.021 277.038C200.589 276.726 201.026 276.314 201.331 275.803C201.644 275.291 201.8 274.734 201.8 274.13V272.202C201.679 272.301 201.473 272.393 201.182 272.479C200.898 272.564 200.578 272.638 200.223 272.702C199.868 272.766 199.516 272.823 199.168 272.873C198.82 272.923 198.519 272.965 198.263 273.001C197.688 273.079 197.173 273.207 196.718 273.384C196.264 273.562 195.905 273.81 195.642 274.13C195.379 274.442 195.248 274.847 195.248 275.344C195.248 276.055 195.507 276.591 196.026 276.953C196.544 277.315 197.205 277.496 198.007 277.496ZM217.695 263.636V266.619H208.288V263.636H217.695ZM210.61 259.716H214.467V275.078C214.467 275.597 214.545 275.994 214.701 276.271C214.864 276.541 215.078 276.726 215.34 276.825C215.603 276.925 215.894 276.974 216.214 276.974C216.455 276.974 216.676 276.957 216.874 276.921C217.08 276.886 217.237 276.854 217.343 276.825L217.993 279.84C217.787 279.911 217.492 279.989 217.109 280.075C216.732 280.16 216.271 280.21 215.724 280.224C214.758 280.252 213.888 280.107 213.114 279.787C212.34 279.46 211.725 278.956 211.271 278.274C210.823 277.592 210.603 276.74 210.61 275.717V259.716ZM233.619 267.962L230.103 268.345C230.004 267.99 229.83 267.656 229.581 267.344C229.34 267.031 229.013 266.779 228.601 266.587C228.189 266.396 227.685 266.3 227.088 266.3C226.286 266.3 225.611 266.474 225.064 266.822C224.524 267.17 224.258 267.621 224.265 268.175C224.258 268.651 224.432 269.038 224.787 269.336C225.149 269.634 225.746 269.879 226.577 270.071L229.368 270.668C230.916 271.001 232.067 271.531 232.82 272.255C233.58 272.979 233.963 273.928 233.97 275.099C233.963 276.129 233.661 277.038 233.065 277.827C232.475 278.608 231.655 279.219 230.604 279.659C229.553 280.099 228.345 280.32 226.982 280.32C224.979 280.32 223.367 279.901 222.145 279.062C220.924 278.217 220.196 277.042 219.961 275.536L223.722 275.174C223.892 275.913 224.255 276.47 224.809 276.847C225.362 277.223 226.083 277.411 226.971 277.411C227.887 277.411 228.622 277.223 229.176 276.847C229.737 276.47 230.018 276.005 230.018 275.451C230.018 274.982 229.837 274.595 229.475 274.29C229.12 273.984 228.566 273.75 227.813 273.587L225.022 273.001C223.452 272.674 222.291 272.124 221.538 271.349C220.785 270.568 220.412 269.581 220.419 268.388C220.412 267.379 220.686 266.506 221.24 265.767C221.801 265.021 222.578 264.446 223.573 264.041C224.574 263.629 225.728 263.423 227.035 263.423C228.953 263.423 230.462 263.832 231.563 264.648C232.671 265.465 233.356 266.57 233.619 267.962Z" fill="#D1D5DB"/>
<g clip-path="url(#clip0_1605_1366)">
<path d="M184 358C195.046 358 204 349.046 204 338C204 326.954 195.046 318 184 318C172.954 318 164 326.954 164 338C164 349.046 172.954 358 184 358Z" fill="#111827"/>
<rect x="178" y="330" width="2" height="16" fill="#D9D9D9"/>
<rect x="188" y="330" width="2" height="16" fill="#D9D9D9"/>
</g>
<path d="M150.228 201.597C148.247 201.589 146.535 201.131 145.093 200.222C143.651 199.313 142.54 198.003 141.759 196.291C140.977 194.58 140.59 192.527 140.597 190.134C140.604 187.733 140.995 185.695 141.769 184.018C142.551 182.342 143.658 181.067 145.093 180.194C146.535 179.32 148.247 178.884 150.228 178.884C152.21 178.884 153.921 179.324 155.363 180.205C156.805 181.078 157.916 182.353 158.698 184.029C159.479 185.705 159.866 187.74 159.859 190.134C159.859 192.541 159.468 194.601 158.687 196.312C157.906 198.024 156.794 199.335 155.352 200.244C153.918 201.146 152.21 201.597 150.228 201.597ZM150.228 196.781C151.251 196.781 152.089 196.249 152.742 195.183C153.403 194.111 153.729 192.428 153.722 190.134C153.722 188.635 153.573 187.41 153.275 186.458C152.977 185.506 152.565 184.803 152.039 184.349C151.514 183.887 150.91 183.656 150.228 183.656C149.205 183.656 148.371 184.175 147.725 185.212C147.078 186.249 146.748 187.889 146.734 190.134C146.727 191.661 146.872 192.918 147.171 193.905C147.469 194.885 147.881 195.609 148.406 196.078C148.939 196.547 149.546 196.781 150.228 196.781ZM172.142 201.597C170.161 201.589 168.449 201.131 167.007 200.222C165.565 199.313 164.454 198.003 163.673 196.291C162.891 194.58 162.504 192.527 162.511 190.134C162.519 187.733 162.909 185.695 163.683 184.018C164.465 182.342 165.573 181.067 167.007 180.194C168.449 179.32 170.161 178.884 172.142 178.884C174.124 178.884 175.835 179.324 177.277 180.205C178.719 181.078 179.83 182.353 180.612 184.029C181.393 185.705 181.78 187.74 181.773 190.134C181.773 192.541 181.382 194.601 180.601 196.312C179.82 198.024 178.708 199.335 177.266 200.244C175.832 201.146 174.124 201.597 172.142 201.597ZM172.142 196.781C173.165 196.781 174.003 196.249 174.656 195.183C175.317 194.111 175.644 192.428 175.636 190.134C175.636 188.635 175.487 187.41 175.189 186.458C174.891 185.506 174.479 184.803 173.953 184.349C173.428 183.887 172.824 183.656 172.142 183.656C171.119 183.656 170.285 184.175 169.639 185.212C168.992 186.249 168.662 187.889 168.648 190.134C168.641 191.661 168.786 192.918 169.085 193.905C169.383 194.885 169.795 195.609 170.32 196.078C170.853 196.547 171.46 196.781 172.142 196.781ZM187.792 198.635C186.968 198.635 186.261 198.347 185.672 197.772C185.09 197.19 184.802 196.483 184.809 195.652C184.802 194.842 185.09 194.15 185.672 193.575C186.261 192.999 186.968 192.712 187.792 192.712C188.573 192.712 189.262 192.999 189.859 193.575C190.462 194.15 190.768 194.842 190.775 195.652C190.768 196.206 190.622 196.71 190.338 197.165C190.061 197.612 189.699 197.971 189.252 198.241C188.804 198.504 188.318 198.635 187.792 198.635ZM187.792 188.152C186.968 188.152 186.261 187.864 185.672 187.289C185.09 186.707 184.802 186 184.809 185.169C184.802 184.359 185.09 183.667 185.672 183.092C186.261 182.516 186.968 182.229 187.792 182.229C188.573 182.229 189.262 182.516 189.859 183.092C190.462 183.667 190.768 184.359 190.775 185.169C190.768 185.723 190.622 186.227 190.338 186.682C190.061 187.129 189.699 187.488 189.252 187.758C188.804 188.021 188.318 188.152 187.792 188.152ZM204.624 179.182V201H198.701V184.636H198.573L193.801 187.491V182.463L199.17 179.182H204.624ZM217.84 201.298C216.164 201.298 214.676 201.004 213.376 200.414C212.084 199.817 211.064 198.997 210.319 197.953C209.58 196.909 209.204 195.709 209.189 194.352H214.942C214.964 195.105 215.255 195.705 215.816 196.153C216.384 196.6 217.059 196.824 217.84 196.824C218.444 196.824 218.976 196.696 219.438 196.44C219.9 196.178 220.262 195.808 220.525 195.332C220.787 194.857 220.915 194.303 220.908 193.67C220.915 193.031 220.787 192.477 220.525 192.009C220.262 191.533 219.9 191.167 219.438 190.911C218.976 190.648 218.444 190.517 217.84 190.517C217.215 190.517 216.636 190.67 216.103 190.975C215.578 191.273 215.191 191.689 214.942 192.222L209.743 191.199L210.596 179.182H225.255V183.912H215.454L215.027 188.727H215.155C215.496 188.067 216.086 187.52 216.924 187.087C217.762 186.646 218.735 186.426 219.843 186.426C221.142 186.426 222.3 186.728 223.316 187.332C224.339 187.935 225.145 188.77 225.734 189.835C226.331 190.893 226.625 192.115 226.618 193.5C226.625 195.02 226.263 196.369 225.532 197.548C224.807 198.72 223.788 199.64 222.474 200.308C221.16 200.968 219.616 201.298 217.84 201.298Z" fill="#10B981"/>
<path d="M152.333 7.18182V29H146.41V12.6364H146.282L141.509 15.4915V10.4631L146.879 7.18182H152.333ZM166.316 29.5966C164.334 29.5895 162.623 29.1314 161.181 28.2223C159.739 27.3132 158.628 26.0028 157.847 24.2912C157.065 22.5795 156.678 20.527 156.685 18.1335C156.692 15.733 157.083 13.6946 157.857 12.0185C158.638 10.3423 159.746 9.06747 161.181 8.19389C162.623 7.32031 164.334 6.88352 166.316 6.88352C168.297 6.88352 170.009 7.32386 171.451 8.20455C172.893 9.07812 174.004 10.353 174.785 12.0291C175.567 13.7053 175.954 15.7401 175.947 18.1335C175.947 20.5412 175.556 22.6009 174.775 24.3125C173.994 26.0241 172.882 27.3345 171.44 28.2436C170.006 29.1456 168.297 29.5966 166.316 29.5966ZM166.316 24.7812C167.339 24.7812 168.177 24.2486 168.83 23.1832C169.491 22.1108 169.817 20.4276 169.81 18.1335C169.81 16.6349 169.661 15.4098 169.363 14.4581C169.065 13.5064 168.653 12.8033 168.127 12.3487C167.601 11.8871 166.998 11.6562 166.316 11.6562C165.293 11.6562 164.459 12.1747 163.812 13.2116C163.166 14.2486 162.836 15.8892 162.822 18.1335C162.815 19.6605 162.96 20.9176 163.258 21.9048C163.557 22.8849 163.969 23.6094 164.494 24.0781C165.027 24.5469 165.634 24.7812 166.316 24.7812ZM181.966 26.6349C181.142 26.6349 180.435 26.3473 179.846 25.772C179.263 25.1896 178.976 24.483 178.983 23.652C178.976 22.8423 179.263 22.1499 179.846 21.5746C180.435 20.9993 181.142 20.7116 181.966 20.7116C182.747 20.7116 183.436 20.9993 184.033 21.5746C184.636 22.1499 184.942 22.8423 184.949 23.652C184.942 24.206 184.796 24.7102 184.512 25.1648C184.235 25.6122 183.873 25.9709 183.425 26.2408C182.978 26.5036 182.491 26.6349 181.966 26.6349ZM181.966 16.152C181.142 16.152 180.435 15.8643 179.846 15.2891C179.263 14.7067 178.976 14 178.983 13.169C178.976 12.3594 179.263 11.6669 179.846 11.0916C180.435 10.5163 181.142 10.2287 181.966 10.2287C182.747 10.2287 183.436 10.5163 184.033 11.0916C184.636 11.6669 184.942 12.3594 184.949 13.169C184.942 13.723 184.796 14.2273 184.512 14.6818C184.235 15.1293 183.873 15.4879 183.425 15.7578C182.978 16.0206 182.491 16.152 181.966 16.152ZM196.625 29.2983C194.906 29.2983 193.379 29.0036 192.044 28.4141C190.716 27.8175 189.672 26.9972 188.912 25.9531C188.152 24.9091 187.768 23.7088 187.761 22.3523H193.727C193.734 22.7713 193.862 23.1477 194.111 23.4815C194.366 23.8082 194.714 24.0639 195.155 24.2486C195.595 24.4332 196.099 24.5256 196.668 24.5256C197.214 24.5256 197.697 24.4297 198.116 24.2379C198.535 24.0391 198.862 23.7656 199.097 23.4176C199.331 23.0696 199.445 22.6719 199.437 22.2244C199.445 21.7841 199.31 21.3935 199.033 21.0526C198.763 20.7116 198.383 20.4453 197.893 20.2536C197.403 20.0618 196.838 19.9659 196.199 19.9659H193.983V15.875H196.199C196.788 15.875 197.307 15.7791 197.754 15.5874C198.209 15.3956 198.56 15.1293 198.809 14.7884C199.065 14.4474 199.189 14.0568 199.182 13.6165C199.189 13.1903 199.086 12.8139 198.873 12.4872C198.66 12.1605 198.361 11.9048 197.978 11.7202C197.601 11.5355 197.165 11.4432 196.668 11.4432C196.128 11.4432 195.645 11.5391 195.219 11.7308C194.8 11.9226 194.469 12.1889 194.228 12.5298C193.986 12.8707 193.862 13.2614 193.855 13.7017H188.187C188.195 12.3665 188.56 11.1875 189.285 10.1648C190.016 9.14204 191.018 8.33949 192.289 7.7571C193.56 7.17472 195.02 6.88352 196.668 6.88352C198.28 6.88352 199.704 7.15696 200.94 7.70383C202.182 8.25071 203.152 9.00355 203.848 9.96236C204.551 10.9141 204.899 12.0043 204.892 13.233C204.906 14.4545 204.487 15.456 203.635 16.2372C202.79 17.0185 201.717 17.4801 200.418 17.6222V17.7926C202.179 17.9844 203.503 18.5241 204.391 19.4119C205.279 20.2926 205.716 21.4006 205.702 22.7358C205.709 24.0142 205.325 25.147 204.551 26.1342C203.784 27.1214 202.715 27.8956 201.344 28.4567C199.981 29.0178 198.408 29.2983 196.625 29.2983ZM217.849 29.5966C215.868 29.5895 214.156 29.1314 212.714 28.2223C211.272 27.3132 210.161 26.0028 209.38 24.2912C208.598 22.5795 208.211 20.527 208.218 18.1335C208.226 15.733 208.616 13.6946 209.39 12.0185C210.172 10.3423 211.28 9.06747 212.714 8.19389C214.156 7.32031 215.868 6.88352 217.849 6.88352C219.831 6.88352 221.542 7.32386 222.984 8.20455C224.426 9.07812 225.537 10.353 226.319 12.0291C227.1 13.7053 227.487 15.7401 227.48 18.1335C227.48 20.5412 227.089 22.6009 226.308 24.3125C225.527 26.0241 224.415 27.3345 222.973 28.2436C221.539 29.1456 219.831 29.5966 217.849 29.5966ZM217.849 24.7812C218.872 24.7812 219.71 24.2486 220.363 23.1832C221.024 22.1108 221.351 20.4276 221.343 18.1335C221.343 16.6349 221.194 15.4098 220.896 14.4581C220.598 13.5064 220.186 12.8033 219.66 12.3487C219.135 11.8871 218.531 11.6562 217.849 11.6562C216.826 11.6562 215.992 12.1747 215.346 13.2116C214.699 14.2486 214.369 15.8892 214.355 18.1335C214.348 19.6605 214.493 20.9176 214.792 21.9048C215.09 22.8849 215.502 23.6094 216.027 24.0781C216.56 24.5469 217.167 24.7812 217.849 24.7812Z" fill="#FBBF24"/>
<circle cx="172" cy="54" r="2" fill="#BFDBFE"/>
<circle cx="184" cy="54" r="2" fill="#FBBF24"/>
<circle cx="196" cy="54" r="2" fill="#FBBF24"/>
<defs>
<filter id="filter0_dd_1605_1366" x="0" y="86" width="367" height="367" filterUnits="userSpaceOnUse" color-interpolation-filters="sRGB">
<feFlood flood-opacity="0" result="BackgroundImageFix"/>
<feColorMatrix in="SourceAlpha" type="matrix" values="0 0 0 0 0 0 0 0 0 0 0 0 0 0 0 0 0 0 127 0" result="hardAlpha"/>
<feOffset dy="1"/>
<feGaussianBlur stdDeviation="1"/>
<feColorMatrix type="matrix" values="0 0 0 0 0 0 0 0 0 0 0 0 0 0 0 0 0 0 0.06 0"/>
<feBlend mode="normal" in2="BackgroundImageFix" result="effect1_dropShadow_1605_1366"/>
<feColorMatrix in="SourceAlpha" type="matrix" values="0 0 0 0 0 0 0 0 0 0 0 0 0 0 0 0 0 0 127 0" result="hardAlpha"/>
<feOffset dy="1"/>
<feGaussianBlur stdDeviation="1.5"/>
<feColorMatrix type="matrix" values="0 0 0 0 0 0 0 0 0 0 0 0 0 0 0 0 0 0 0.1 0"/>
<feBlend mode="normal" in2="effect1_dropShadow_1605_1366" result="effect2_dropShadow_1605_1366"/>
<feBlend mode="normal" in="SourceGraphic" in2="effect2_dropShadow_1605_1366" result="shape"/>
</filter>
<filter id="filter1_dd_1605_1366" x="0" y="86" width="367" height="367" filterUnits="userSpaceOnUse" color-interpolation-filters="sRGB">
<feFlood flood-opacity="0" result="BackgroundImageFix"/>
<feColorMatrix in="SourceAlpha" type="matrix" values="0 0 0 0 0 0 0 0 0 0 0 0 0 0 0 0 0 0 127 0" result="hardAlpha"/>
<feOffset dy="1"/>
<feGaussianBlur stdDeviation="1"/>
<feColorMatrix type="matrix" values="0 0 0 0 0 0 0 0 0 0 0 0 0 0 0 0 0 0 0.06 0"/>
<feBlend mode="normal" in2="BackgroundImageFix" result="effect1_dropShadow_1605_1366"/>
<feColorMatrix in="SourceAlpha" type="matrix" values="0 0 0 0 0 0 0 0 0 0 0 0 0 0 0 0 0 0 127 0" result="hardAlpha"/>
<feOffset dy="1"/>
<feGaussianBlur stdDeviation="1.5"/>
<feColorMatrix type="matrix" values="0 0 0 0 0 0 0 0 0 0 0 0 0 0 0 0 0 0 0.1 0"/>
<feBlend mode="normal" in2="effect1_dropShadow_1605_1366" result="effect2_dropShadow_1605_1366"/>
<feBlend mode="normal" in="SourceGraphic" in2="effect2_dropShadow_1605_1366" result="shape"/>
</filter>
<clipPath id="clip0_1605_1366">
<rect width="40" height="40" fill="white" transform="translate(164 318)"/>
</clipPath>
</defs>
</svg>
